<?xml version="1.0" encoding="UTF-8"?>
<svg id="Layer_2" xmlns="http://www.w3.org/2000/svg" viewBox="0 0 2153.2 810.76">
  <defs>
    <style>
      .cls-1, .cls-2 {
        fill: #fff;
      }

      .cls-3 {
        opacity: .72;
      }

      .cls-4 {
        letter-spacing: 0em;
      }

      .cls-5 {
        stroke-width: 8px;
      }

      .cls-5, .cls-6 {
        fill: #1d1d1b;
        stroke: #fff;
        stroke-miterlimit: 10;
      }

      .cls-2 {
        font-family: MyriadPro-Regular, 'Myriad Pro';
        font-size: 105px;
      }

      .cls-7 {
        letter-spacing: -.07em;
      }

      .cls-6 {
        stroke-width: 4px;
      }
    </style>
  </defs>
  <g id="sauvegardes">
    <g>
      <g class="cls-3">
        <path class="cls-5" d="M1458.4,185.8H161.96c-41.2,0-79.65,20.63-102.43,54.96-45.37,68.4-96.92,192.86-2.61,328.61,23.7,34.12,62.67,54.4,104.21,54.4h1295.68"/>
        <g>
          <path class="cls-5" d="M2011.9,806.76c-365.21,0-661.27-179.7-661.27-401.38S1646.69,4,2011.9,4"/>
          <g>
            <ellipse class="cls-5" cx="2010.61" cy="405.38" rx="138.59" ry="401.38"/>
            <path class="cls-5" d="M1986.28,10.18c65.89,33.89,114.36,201.39,114.36,395.2s-48.49,361.37-114.39,395.22"/>
          </g>
        </g>
      </g>
      <rect class="cls-6" x="889.41" y="326.85" width="382.63" height="148.79" rx="74.4" ry="74.4"/>
      <text class="cls-2" transform="translate(337.78 437.01)"><tspan x="0" y="0">S</tspan><tspan class="cls-7" x="51.76" y="0">T</tspan><tspan x="96.07" y="0">A</tspan><tspan class="cls-4" x="160.33" y="0">R</tspan><tspan x="217.77" y="0">T</tspan></text>
      <ellipse class="cls-1" cx="1182.2" cy="401.25" rx="33.68" ry="60.98"/>
    </g>
  </g>
</svg>